<svg viewBox="0 0 369 65" xmlns="http://www.w3.org/2000/svg"><g fill="#000" fill-rule="evenodd"><path d="M5.6 0h13.601v11h9.801v11.201h-9.8v20.201c0 7.801 2.4 9.401 7.7 9.401.9 0 1.4 0 2.5-.1v11.801s-2.1.5-5.9.5C11 64.004 5.5 57.004 5.5 42.802v-20.6H0V11h5.6V0zM68.502 23.701c-10.301 0-14.101 6.4-14.101 16.801v22.802H40.6V11h13.5v7.601c2.3-5.2 7.502-8.9 14.402-8.9v14zM95.5 53.904c5.2 0 9-2.802 9-7.202 0-4.6-3.8-7.3-9.1-7.3s-9.001 3-9.001 7.3c0 4.302 3.9 7.202 9.1 7.202M92.9 29.8c5.3 0 9.4 1.602 11.3 2.9v-3.4c0-4.6-3.4-7.7-9.5-7.7-5.2 0-10 1.7-13.9 3.7l-5.2-9.4c4.7-3.2 12.6-6.2 20.6-6.2 16.802 0 21.802 8.8 21.802 20.5v33.102H105.8l-.9-3.4c-2.7 2.9-6.7 4.7-12.7 4.7-10.601 0-19.601-6.5-19.601-17.5 0-10.302 8.1-17.302 20.3-17.302M140.898 63.304L122.197 11h14.7l12 37.602L160.9 11h14.7l-18.7 52.303zM215.598 31.602c-.3-6.4-4.9-10.601-11.2-10.601-6.5 0-10.7 4.6-11.302 10.6h22.502zM204.198 9.7c16.2 0 25.401 10.8 25.401 27.9 0 1 0 2-.1 3.002h-36.802c.3 7 5.9 12 13.6 12 7.101 0 11.201-4.2 12.701-6.4l9.101 6.9c-2 3.7-9 11.5-22.002 11.5-16.8 0-27.5-11.6-27.5-27.301 0-15.801 10.7-27.601 25.601-27.601zM265.197 23.701c-10.301 0-14.101 6.4-14.101 16.801v22.802h-13.8V11h13.5v7.601c2.3-5.2 7.5-8.9 14.4-8.9v14zM309.896 47.702l3.7 11.301c-3 2.4-8.7 5.6-16.3 5.6-16.302 0-27.903-11.4-27.903-27.3 0-15.902 11.9-27.603 27.802-27.603 7.7 0 13.1 3.001 16.501 5.601l-3.9 11.6c-2.3-2.1-6.3-5-12.2-5-8.9 0-14.402 6.901-14.402 15.301 0 8.9 6.2 15.2 14.901 15.2 5.3 0 9.5-2.8 11.801-4.7M354.495 31.602c-.3-6.4-4.9-10.601-11.201-10.601-6.5 0-10.7 4.6-11.301 10.6h22.502zM343.095 9.7c16.2 0 25.4 10.8 25.4 27.9 0 1 0 2-.1 3.002h-36.801c.299 7 5.9 12 13.6 12 7.1 0 11.2-4.2 12.7-6.4l9.102 6.9c-2 3.7-9.001 11.5-22.002 11.5-16.801 0-27.501-11.6-27.501-27.301 0-15.801 10.7-27.601 25.602-27.601z"/></g></svg>
